<svg id="Layer_1" data-name="Layer 1" xmlns="http://www.w3.org/2000/svg" xmlns:xlink="http://www.w3.org/1999/xlink" viewBox="0 0 414.91 194.99"><defs><style>.cls-1{fill:none;}.cls-2{clip-path:url(#clip-path);}.cls-3,.cls-4{fill:#dd052b;}.cls-3{fill-rule:evenodd;}.cls-5{fill:#4a4a49;}.cls-6{fill:#2b2523;}.cls-7{fill:#f7a823;}.cls-8{fill:#03a9c5;}</style><clipPath id="clip-path"><rect class="cls-1" width="414.91" height="194.99"/></clipPath></defs><g class="cls-2"><path class="cls-3" d="M137.4,177.13H151a5.53,5.53,0,0,1,5.61,5.41v12.38H136.28a3.37,3.37,0,0,1-3.42-3.29v-4.31a3.13,3.13,0,0,1,3.18-3.06h11.28l-1.2,2.51h-8.29a.74.74,0,0,0-.77.66v3.38a.74.74,0,0,0,.77.66h14.38v-8.12a2.89,2.89,0,0,0-3-2.77h-13.5Z"/><path class="cls-3" d="M249.13,170.66v24.26H229.3a3.36,3.36,0,0,1-3.41-3.29v-9.09a5.52,5.52,0,0,1,5.61-5.41h11.29l-1.66,3.45h-7.89a2.89,2.89,0,0,0-3,2.77v7.46a.74.74,0,0,0,.77.66h13.69V170.66Z"/><path class="cls-3" d="M179.48,194.92h4.39V182.54a5.54,5.54,0,0,0-5.61-5.41h-9.33l-1.66,3.45h9.25a2.9,2.9,0,0,1,3,2.77Z"/><rect class="cls-4" x="161.21" y="170.66" width="4.39" height="24.26"/><path class="cls-3" d="M124.6,194.92H129V182.54a5.54,5.54,0,0,0-5.61-5.41H94.6v17.79H99V181.24a.74.74,0,0,1,.77-.66h9.07a.74.74,0,0,1,.77.66v13.68H114V181.24a.74.74,0,0,1,.77-.66h6.88a2.9,2.9,0,0,1,3,2.78Z"/><path class="cls-3" d="M272,177.13H261a5.52,5.52,0,0,0-5.61,5.41v12.38h4.39V183.35a2.89,2.89,0,0,1,3-2.77h7.61Z"/><path class="cls-3" d="M215.85,177.13a5.53,5.53,0,0,1,5.61,5.41v12.38h-4.4V183.35a2.89,2.89,0,0,0-3-2.77H203.55v14.34h-4.39V177.14h16.69"/><polygon class="cls-3" points="189.32 178.25 193.71 175.76 193.71 194.92 189.32 194.92 189.32 178.25"/><polygon class="cls-3" points="193.71 173.25 193.71 170.62 189.32 170.62 189.32 175.75 193.71 173.25"/><path class="cls-3" d="M275.1,177.13h13.6a5.52,5.52,0,0,1,5.6,5.41v12.38H274a3.37,3.37,0,0,1-3.42-3.29v-4.31a3.13,3.13,0,0,1,3.18-3.06H285l-1.19,2.51h-8.3a.74.74,0,0,0-.77.66v3.38a.74.74,0,0,0,.77.66h14.39v-8.12a2.89,2.89,0,0,0-3-2.77H273.46Z"/><path class="cls-5" d="M51.88,194.66v-19c1.2-.09,2.26-.16,3.18-.2l2.5-.11c.75,0,1.46,0,2.13,0a17.22,17.22,0,0,1,4.46.46,4.3,4.3,0,0,1,2.41,1.49,4.58,4.58,0,0,1,.73,2.72,4.7,4.7,0,0,1-.84,2.83A4.58,4.58,0,0,1,64,184.46v.06a5.5,5.5,0,0,1,3.27,1.64,4.57,4.57,0,0,1,1.19,3.23A6.36,6.36,0,0,1,68,192a4,4,0,0,1-1.46,1.74,7,7,0,0,1-2.62,1,21.53,21.53,0,0,1-4,.32l-1.51,0L57,195l-1.39-.06-1.65-.1-2.12-.13M54.45,184h6.64a4.57,4.57,0,0,0,2-.42,3,3,0,0,0,1.31-1.19,3.44,3.44,0,0,0,.45-1.78,3.16,3.16,0,0,0-.52-1.88,3,3,0,0,0-1.72-1.07,12.5,12.5,0,0,0-3.2-.33H57.66l-.79.05-1,0c-.39,0-.86.06-1.4.11Zm0,8.8,1.8.1,1.36.07,1.07,0h1a14,14,0,0,0,3.64-.37,3.27,3.27,0,0,0,1.91-1.17,3.64,3.64,0,0,0,.58-2.18,3,3,0,0,0-1.16-2.51,5.75,5.75,0,0,0-3.46-.87H54.45Z"/><polygon class="cls-5" points="76.5 194.71 76.5 186.95 68.44 175.69 71.17 175.47 77.79 185.28 84.19 175.47 86.89 175.69 79.04 186.95 79.04 194.71 76.5 194.71"/><path class="cls-6" d="M279.54,130.42c-.74,0-1.37.05-2,.05H240c-.58,0-1.17,0-1.75,0a3.88,3.88,0,0,0-3.5,4.71,19.37,19.37,0,0,0,2.3,6.06,14.61,14.61,0,0,0,10.71,7.16,21.16,21.16,0,0,0,8.2-.34,12.56,12.56,0,0,0,8.13-5.89c.69-1.13,1.23-2.34,1.88-3.62.26,0,.62-.1,1-.1,2.39,0,4.77,0,7.16,0a7.55,7.55,0,0,1,.95,0,2.85,2.85,0,0,1,2.51,3.41,9.38,9.38,0,0,1-.71,2.09,25.05,25.05,0,0,1-12,12.23,30.67,30.67,0,0,1-11,3,33.56,33.56,0,0,1-11.82-.9c-9.66-2.56-16.06-8.65-19.29-18.07a41.11,41.11,0,0,1-2-14.4A35.08,35.08,0,0,1,224.4,111,28.65,28.65,0,0,1,239,96.81a26.25,26.25,0,0,1,9.23-2.15,31.32,31.32,0,0,1,9.93.85,27.85,27.85,0,0,1,15,10.13,32.53,32.53,0,0,1,6.2,14.61,34.44,34.44,0,0,1,.31,9.18c0,.26-.07.52-.14,1m-45.05-8.92c.5,0,.87.07,1.23.07q12.61,0,25.25,0a8.39,8.39,0,0,0,1.73-.17,3.45,3.45,0,0,0,2.54-4.51c-.33-.84-.63-1.69-1-2.51-3.36-7.53-11.29-11.13-19.59-8.09-5.42,2-8.43,6.16-9.83,11.61a9.6,9.6,0,0,0-.33,3.6"/><path class="cls-6" d="M178.21,113.35c-.54,0-.9.07-1.27.07-2.65,0-5.3,0-7.95,0a6.61,6.61,0,0,1-6.29-3.79,6.11,6.11,0,0,0-2.72-2.58,15.1,15.1,0,0,0-4.36-1.44,22.78,22.78,0,0,0-10.22.48,9.19,9.19,0,0,0-3,1.48,5.25,5.25,0,0,0-.44,7.84,12.25,12.25,0,0,0,3.3,2.17,29.07,29.07,0,0,0,5.89,1.88c3.46.77,6.95,1.44,10.4,2.25,2.21.53,4.39,1.2,6.55,1.88a20.45,20.45,0,0,1,6.19,3.19,14.51,14.51,0,0,1,6.12,11.81A21.41,21.41,0,0,1,180,144a16.36,16.36,0,0,1-5.15,8.4,24.47,24.47,0,0,1-9.24,5.13,42.87,42.87,0,0,1-8.71,1.69,43.35,43.35,0,0,1-9-.08,32.47,32.47,0,0,1-10.54-2.8,21.79,21.79,0,0,1-4.81-3.06,19.22,19.22,0,0,1-6.83-14.65.66.66,0,0,1,.07-.3c0-.05.05-.09.14-.23a6.18,6.18,0,0,1,.84-.09c2.59,0,5.19,0,7.79,0a6.15,6.15,0,0,1,5.77,4,8.63,8.63,0,0,0,4.86,5.14,18.13,18.13,0,0,0,6.29,1.56,27,27,0,0,0,9.13-.89,10.67,10.67,0,0,0,4.22-2.13c2.93-2.44,2.49-7.13.23-9.22a12.72,12.72,0,0,0-3.72-2.39,34.81,34.81,0,0,0-6.22-1.88c-3.82-.86-7.66-1.65-11.47-2.56-1.69-.4-3.35-1-5-1.54a20.41,20.41,0,0,1-5.21-2.68,14.38,14.38,0,0,1-6.34-11,19.54,19.54,0,0,1,.35-6.15,12.68,12.68,0,0,1,2.22-4.71,20,20,0,0,1,8.84-6.51,32.71,32.71,0,0,1,7.68-1.9,46.2,46.2,0,0,1,9.83-.32,29.58,29.58,0,0,1,11.47,2.9,19.14,19.14,0,0,1,10.72,14.48,10.53,10.53,0,0,1,.08,1.26"/><path class="cls-6" d="M.15,138H1.31c2.44,0,4.88.06,7.32,0a6.36,6.36,0,0,1,6.09,4.23,7.75,7.75,0,0,0,3.86,4.44,17.43,17.43,0,0,0,7.29,2,27.7,27.7,0,0,0,9-.88,11.76,11.76,0,0,0,3.48-1.53,6.42,6.42,0,0,0,.48-10.34,16.1,16.1,0,0,0-4-2.23,47,47,0,0,0-6.89-1.86,128.68,128.68,0,0,1-13.27-3.18,25.41,25.41,0,0,1-6.73-3.16A14.46,14.46,0,0,1,1.37,114.2a19.81,19.81,0,0,1,.35-6,12.64,12.64,0,0,1,2.2-4.71,19.91,19.91,0,0,1,9-6.59A33.21,33.21,0,0,1,20.42,95a45.75,45.75,0,0,1,10-.31,29.73,29.73,0,0,1,11.18,2.8A19.2,19.2,0,0,1,52.49,112c0,.21.06.42.07.63a4.25,4.25,0,0,1,0,.57,4,4,0,0,1-.86.17c-2.91,0-5.82,0-8.74,0A6.26,6.26,0,0,1,37.24,110a7.12,7.12,0,0,0-3.57-3.22,18.05,18.05,0,0,0-7.42-1.48,21,21,0,0,0-6.44.82,10.17,10.17,0,0,0-3,1.47,5.26,5.26,0,0,0-.41,7.95,12.79,12.79,0,0,0,3.18,2.07,29.89,29.89,0,0,0,6,1.92c3,.66,6,1.27,9,1.92a68.18,68.18,0,0,1,7.94,2.21,21.78,21.78,0,0,1,6.17,3.23,14.52,14.52,0,0,1,6,11.71,21,21,0,0,1-.47,5.36,16.37,16.37,0,0,1-5.24,8.51,24.54,24.54,0,0,1-9.26,5.09,43.76,43.76,0,0,1-8.72,1.67,42.68,42.68,0,0,1-9-.1,32.39,32.39,0,0,1-10.39-2.77,21.47,21.47,0,0,1-6-4.12A18.66,18.66,0,0,1,.14,140.37a5.29,5.29,0,0,1,0-2.41"/><path class="cls-6" d="M300.75,105.26c1-1.05,1.71-2,2.44-2.88a20.43,20.43,0,0,1,9.05-6.49,20.18,20.18,0,0,1,6.2-1.25,29.28,29.28,0,0,1,10.36,1.19,20.58,20.58,0,0,1,1.93.73A16.85,16.85,0,0,1,341,109a25.67,25.67,0,0,1,.66,5.66q0,19.14,0,38.28a5.57,5.57,0,0,1-.29,1.86,3.74,3.74,0,0,1-3.36,2.75,44,44,0,0,1-6.18,0,4.13,4.13,0,0,1-3.71-3.93c0-.47,0-.95,0-1.43q0-14.21,0-28.42a64,64,0,0,0-.64-9.18,15.79,15.79,0,0,0-1.08-3.81,8.23,8.23,0,0,0-5-4.74,15.39,15.39,0,0,0-5.79-.8,14.16,14.16,0,0,0-4.07.63,13.46,13.46,0,0,0-6.78,4.74,17.11,17.11,0,0,0-3.44,9.41c0,.73,0,1.48,0,2.22q0,15,0,30a11.66,11.66,0,0,1-.17,2,4.09,4.09,0,0,1-3.63,3.28c-2,.06-4,.09-6,0a4.17,4.17,0,0,1-3.72-4.08c0-.37,0-.74,0-1.11V101.58c0-.42,0-.85,0-1.27a4.21,4.21,0,0,1,4-4c1.64-.07,3.29-.07,4.92,0a4.14,4.14,0,0,1,3.83,3.63,20.15,20.15,0,0,1,.08,2.06,16,16,0,0,0,.27,3.28"/><path class="cls-6" d="M103.79,149.45a7.06,7.06,0,0,0-1.53,1.77c-3,4.21-7.12,6.54-12,7.69a15.12,15.12,0,0,1-3.14.43A33,33,0,0,1,76,157.89a16.23,16.23,0,0,1-10.33-9.43,27.7,27.7,0,0,1-1.88-6.86,43.6,43.6,0,0,1-.42-6.65v-33.5a11.32,11.32,0,0,1,.06-1.43,4.13,4.13,0,0,1,3.89-3.73c1.85-.09,3.71-.08,5.56,0a4.16,4.16,0,0,1,4,3.85c.05.58,0,1.17,0,1.75q0,13.34,0,26.67a76.82,76.82,0,0,0,.55,9.83,25.24,25.24,0,0,0,.94,4,8.38,8.38,0,0,0,5.22,5.4,12.56,12.56,0,0,0,3.86.86,17.77,17.77,0,0,0,5.68-.4c5.51-1.29,8.83-4.77,10.06-10.25a29.93,29.93,0,0,0,.67-6.62q0-14.76,0-29.53c0-.53,0-1.06,0-1.59a4.26,4.26,0,0,1,4-4c1.75,0,3.5,0,5.25,0a4.28,4.28,0,0,1,4.25,4.09c0,.43,0,.85,0,1.27q0,25.34,0,50.66a8.44,8.44,0,0,1-.21,2.19,3.78,3.78,0,0,1-3.43,3.08,37.81,37.81,0,0,1-6,0,4,4,0,0,1-3.61-4c-.06-1.05,0-2.11-.08-3.17a5.29,5.29,0,0,0-.23-1"/><path class="cls-6" d="M218.2,147.33c0,.65.05,1.22.05,1.8,0,1.37,0,2.75,0,4.13a5.67,5.67,0,0,1-1,3.29,2.69,2.69,0,0,1-1.91,1.3,39.77,39.77,0,0,1-13.59-.33,13.64,13.64,0,0,1-3.56-1.33,9.47,9.47,0,0,1-4.65-5.6,22.27,22.27,0,0,1-.91-5c-.12-1.42-.17-2.86-.17-4.28q0-14.62,0-29.23a13.72,13.72,0,0,0-.13-2.22,4.24,4.24,0,0,0-3.95-3.52c-.58,0-1.17,0-1.75,0a4.37,4.37,0,0,1-4.43-4.29,9.31,9.31,0,0,1,.14-2.36,4.18,4.18,0,0,1,4-3.41c.58,0,1.17,0,1.75,0A4.37,4.37,0,0,0,192.4,92c0-1.27,0-2.54,0-3.81q0-.8.06-1.59a4.25,4.25,0,0,1,4.12-3.89c1.74-.08,3.5-.08,5.24,0a4.23,4.23,0,0,1,4.09,4.24c0,1.33,0,2.65,0,4a9.72,9.72,0,0,0,.06,1.43,4.39,4.39,0,0,0,4.31,3.91c1.11,0,2.23.06,3.34,0a4.39,4.39,0,0,1,4.59,4.59c0,.37,0,.74,0,1.11a4.36,4.36,0,0,1-4.34,4.37c-1.21.06-2.44,0-3.65,0a4.17,4.17,0,0,0-2.88,1.16,4.39,4.39,0,0,0-1.38,2.79,8.79,8.79,0,0,0-.05,1.26q0,14.07.05,28.12c0,1.11.09,2.22.2,3.33a7,7,0,0,0,.42,1.68,4.26,4.26,0,0,0,3.62,2.73,17.84,17.84,0,0,0,3,.19c1.58,0,3.16-.17,4.95-.27"/><path class="cls-7" d="M385.07,63.82l-25.2-25.2a7.46,7.46,0,0,1,0-10.54L385.76,2.19A7.45,7.45,0,0,1,396.3,12.73L375.68,33.35l19.93,19.93Z"/><path class="cls-8" d="M364.93,159.37a7.45,7.45,0,0,1-5.27-12.72l37.25-37.25L360,72.47l10.54-10.55,42.21,42.21a7.46,7.46,0,0,1,0,10.54L370.2,157.19a7.39,7.39,0,0,1-5.27,2.18"/></g></svg>